<?xml version="1.0" encoding="UTF-8"?>
<svg width="64px" height="64px" viewBox="0 0 64 64" version="1.1" xmlns="http://www.w3.org/2000/svg">
    <g stroke="none" stroke-width="1" fill="none" fill-rule="evenodd">
        <rect fill="#E3F2FD" x="0" y="0" width="64" height="64" rx="8"/>
        <path d="M44,24 C44,19.582 40.418,16 36,16 C31.582,16 28,19.582 28,24 C28,25.721 28.378,27.354 29.051,28.828 L28,36 L35.172,34.949 C36.646,35.622 38.279,36 40,36 C44.418,36 48,32.418 48,28" fill="#0066CC"/>
        <path d="M36,40 C36,35.582 32.418,32 28,32 C23.582,32 20,35.582 20,40 C20,41.721 20.378,43.354 21.051,44.828 L20,52 L27.172,50.949 C28.646,51.622 30.279,52 32,52 C36.418,52 40,48.418 40,44" fill="#0066CC" opacity="0.8"/>
    </g>
</svg>
